<svg xmlns="http://www.w3.org/2000/svg" viewBox="0 0 512 512" role="img" aria-labelledby="title desc">
  <title id="title">Colonoscopy Prep Companion icon</title>
  <desc id="desc">A blue app icon with a stylized red colon and yellow reminder mark.</desc>
  <defs>
    <linearGradient id="bg" x1="84" x2="430" y1="34" y2="486" gradientUnits="userSpaceOnUse">
      <stop offset="0" stop-color="#245da2"/>
      <stop offset="0.58" stop-color="#1d4f91"/>
      <stop offset="1" stop-color="#143a6f"/>
    </linearGradient>
    <filter id="shadow" x="-20%" y="-20%" width="140%" height="140%">
      <feDropShadow dx="0" dy="16" stdDeviation="18" flood-color="#0d2c54" flood-opacity="0.28"/>
    </filter>
  </defs>
  <rect width="512" height="512" rx="112" fill="url(#bg)"/>
  <path d="M90 398c54 44 137 70 221 52 70-15 113-58 132-115" fill="none" stroke="#f4bd2a" stroke-width="28" stroke-linecap="round" opacity="0.95"/>
  <g filter="url(#shadow)">
    <path d="M162 124c-43 18-68 62-61 110 7 52 48 79 87 83 35 4 60-9 79-28 16-16 35-16 46-4 12 12 10 35-4 49-25 26-67 38-113 31-72-11-126-62-137-126-12-69 22-136 83-166 58-28 128-17 168 26 36 39 40 97 8 137-17 21-44 32-77 32-28 0-48-14-48-35 0-20 18-33 42-33 21 0 35-7 43-19 10-16 8-38-6-54-22-25-71-34-110-13z" fill="none" stroke="#ffffff" stroke-width="54" stroke-linecap="round" stroke-linejoin="round"/>
    <path d="M162 124c-43 18-68 62-61 110 7 52 48 79 87 83 35 4 60-9 79-28 16-16 35-16 46-4 12 12 10 35-4 49-25 26-67 38-113 31-72-11-126-62-137-126-12-69 22-136 83-166 58-28 128-17 168 26 36 39 40 97 8 137-17 21-44 32-77 32-28 0-48-14-48-35 0-20 18-33 42-33 21 0 35-7 43-19 10-16 8-38-6-54-22-25-71-34-110-13z" fill="none" stroke="#c73b32" stroke-width="32" stroke-linecap="round" stroke-linejoin="round"/>
    <circle cx="370" cy="152" r="24" fill="#f4bd2a"/>
    <circle cx="370" cy="226" r="24" fill="#f4bd2a"/>
  </g>
</svg>
